<svg width="48" height="48" viewBox="0 0 48 48" fill="none" xmlns="http://www.w3.org/2000/svg">
<path fill-rule="evenodd" clip-rule="evenodd" d="M24 1.84615C36.2352 1.84615 46.1538 11.7648 46.1538 24C46.1538 36.2352 36.2352 46.1538 24 46.1538C11.7648 46.1538 1.84615 36.2352 1.84615 24C1.84615 11.7648 11.7648 1.84615 24 1.84615ZM24 0C37.2548 0 48 10.7452 48 24C48 37.2548 37.2548 48 24 48C10.7452 48 0 37.2548 0 24C0 10.7452 10.7452 0 24 0Z" fill="#0085CA"/>
<path d="M16.9998 19.4442V18.222C16.6757 18.222 16.3648 18.3508 16.1356 18.58C15.9064 18.8092 15.7776 19.1201 15.7776 19.4442H16.9998ZM16.9998 21.8886L17.8651 22.7539L18.222 22.3946V21.8886H16.9998ZM21.8886 37.7772H23.1108V37.2712L22.7539 36.9119L21.8886 37.7772ZM19.4442 35.3328H18.222V35.8388L18.5789 36.1981L19.4442 35.3328ZM19.4442 31.6662H20.6664V31.1602L20.3095 30.8009L19.4442 31.6662ZM16.9998 29.2218H15.7776V29.7278L16.1345 30.0871L16.9998 29.2218ZM16.9998 26.7774V25.5552C16.6757 25.5552 16.3648 25.684 16.1356 25.9132C15.9064 26.1424 15.7776 26.4533 15.7776 26.7774H16.9998ZM27.9996 7.2222V12.111H30.444V7.2222H27.9996ZM26.7774 13.3332H24.333V15.7776H26.7774V13.3332ZM19.4442 18.222H16.9998V20.6664H19.4442V18.222ZM15.7776 19.4442V21.8886H18.222V19.4442H15.7776ZM16.1345 21.0233L15.4207 21.7395L17.1489 23.4677L17.8651 22.7539L16.1345 21.0233ZM13.6901 21.7395L9.30972 17.3567L7.57908 19.0873L11.9643 23.4677L13.6925 21.7395H13.6901ZM20.6664 16.9998C20.6664 17.324 20.5376 17.6348 20.3084 17.864C20.0792 18.0932 19.7684 18.222 19.4442 18.222V20.6664C20.4166 20.6664 21.3493 20.2801 22.0369 19.5925C22.7245 18.9049 23.1108 17.9722 23.1108 16.9998H20.6664ZM24.333 13.3332C23.3606 13.3332 22.4279 13.7195 21.7403 14.4071C21.0527 15.0947 20.6664 16.0274 20.6664 16.9998H23.1108C23.1108 16.6757 23.2396 16.3648 23.4688 16.1356C23.698 15.9064 24.0089 15.7776 24.333 15.7776V13.3332ZM15.4207 21.7419C15.3072 21.8558 15.1723 21.9461 15.0238 22.0077C14.8753 22.0693 14.7162 22.101 14.5554 22.101C14.3946 22.101 14.2355 22.0693 14.087 22.0077C13.9385 21.9461 13.8036 21.8558 13.6901 21.7419L11.9619 23.4677C12.3024 23.8084 12.7067 24.0787 13.1517 24.2631C13.5967 24.4475 14.0737 24.5424 14.5554 24.5424C15.0371 24.5424 15.5141 24.4475 15.9591 24.2631C16.4041 24.0787 16.8084 23.8084 17.1489 23.4677L15.4207 21.7395V21.7419ZM27.9996 12.111C27.9996 12.4352 27.8708 12.746 27.6416 12.9752C27.4124 13.2044 27.1016 13.3332 26.7774 13.3332V15.7776C27.7499 15.7776 28.6825 15.3913 29.3701 14.7037C30.0577 14.0161 30.444 13.0834 30.444 12.111H27.9996ZM23.1108 41.4438V37.7772H20.6664V41.4438H23.1108ZM22.7539 36.9119L20.3095 34.4675L18.5789 36.1981L21.0233 38.6425L22.7539 36.9119ZM20.6664 35.3328V31.6662H18.222V35.3328H20.6664ZM20.3095 30.8009L17.8651 28.3565L16.1345 30.0871L18.5789 32.5315L20.3095 30.8009ZM18.222 29.2218V26.7774H15.7776V29.2218H18.222ZM16.9998 27.9996H26.7774V25.5552H16.9998V27.9996ZM27.9996 29.2218V30.8522H30.444V29.2218H27.9996ZM32.4802 35.3328H38.9994V32.8884H32.4802V35.3328ZM30.444 33.2966C30.444 34.421 31.3558 35.3328 32.4802 35.3328V32.8884C32.7051 32.8884 32.8884 33.0717 32.8884 33.2966H30.444ZM30.0358 32.8884C30.2607 32.8884 30.444 33.0717 30.444 33.2966H32.8884C32.8884 31.72 31.6124 30.444 30.0358 30.444V32.8884ZM27.9996 30.8522C27.9996 31.9766 28.9114 32.8884 30.0358 32.8884V30.444C30.2607 30.444 30.444 30.6273 30.444 30.8522H27.9996ZM26.7774 27.9996C27.1016 27.9996 27.4124 28.1284 27.6416 28.3576C27.8708 28.5868 27.9996 28.8977 27.9996 29.2218H30.444C30.444 28.2494 30.0577 27.3168 29.3701 26.6291C28.6825 25.9415 27.7499 25.5552 26.7774 25.5552V27.9996ZM24.333 40.2216C20.1191 40.2216 16.0778 38.5476 13.0981 35.5679C10.1184 32.5883 8.4444 28.5469 8.4444 24.333H6C6 29.1952 7.93151 33.8583 11.3696 37.2964C14.8077 40.7345 19.4708 42.666 24.333 42.666V40.2216ZM40.2216 24.333C40.2216 26.4195 39.8106 28.4856 39.0122 30.4133C38.2137 32.341 37.0433 34.0926 35.5679 35.5679C34.0926 37.0433 32.341 38.2137 30.4133 39.0122C28.4856 39.8106 26.4195 40.2216 24.333 40.2216V42.666C29.1952 42.666 33.8583 40.7345 37.2964 37.2964C40.7345 33.8583 42.666 29.1952 42.666 24.333H40.2216ZM24.333 8.4444C26.4195 8.4444 28.4856 8.85537 30.4133 9.65385C32.341 10.4523 34.0926 11.6227 35.5679 13.0981C37.0433 14.5735 38.2137 16.325 39.0122 18.2527C39.8106 20.1804 40.2216 22.2465 40.2216 24.333H42.666C42.666 19.4708 40.7345 14.8077 37.2964 11.3696C33.8583 7.93151 29.1952 6 24.333 6V8.4444ZM24.333 6C19.4708 6 14.8077 7.93151 11.3696 11.3696C7.93151 14.8077 6 19.4708 6 24.333H8.4444C8.4444 20.1191 10.1184 16.0778 13.0981 13.0981C16.0778 10.1184 20.1191 8.4444 24.333 8.4444V6Z" fill="#0085CA"/>
</svg>
