<svg width="48" height="48" viewBox="0 0 48 48" fill="none" xmlns="http://www.w3.org/2000/svg">
<path fill-rule="evenodd" clip-rule="evenodd" d="M24 1.84615C36.2352 1.84615 46.1538 11.7648 46.1538 24C46.1538 36.2352 36.2352 46.1538 24 46.1538C11.7648 46.1538 1.84615 36.2352 1.84615 24C1.84615 11.7648 11.7648 1.84615 24 1.84615ZM24 0C37.2548 0 48 10.7452 48 24C48 37.2548 37.2548 48 24 48C10.7452 48 0 37.2548 0 24C0 10.7452 10.7452 0 24 0Z" fill="#0085CA"/>
<path d="M35.1666 25.6847L37.5 23.3325L36.3914 20.1778L37.5 17.0231L35.1666 14.6709L34.8233 11.3372L31.7265 10.2553L30.0092 7.40062L26.7586 7.80281L24.0005 6L21.2423 7.80281L17.9917 7.40062L16.2735 10.2553L13.1767 11.3372L12.8334 14.6709L10.5 17.0231L11.6086 20.1778L10.5 23.3325L12.8334 25.6847L13.1767 29.0184L14.8967 29.6194L11.9491 39.0534L16.9948 38.7694L20.943 42L23.4448 33.9909L24.0005 34.3547L24.5561 33.9909L27.0579 42L31.0052 38.7694L36.0509 39.0534L33.1033 29.6194L34.8224 29.0184L35.1666 25.6847ZM19.8912 38.4375L17.6677 36.6169L14.8253 36.7772L16.6937 30.7969L17.9917 32.955L21.2423 32.5528L21.6469 32.8172L19.8912 38.4375ZM30.3333 36.6169L28.1097 38.4375L26.354 32.8172L26.7586 32.5528L30.0092 32.955L31.3073 30.7969L33.1756 36.7772L30.3333 36.6169ZM32.912 27.4547L30.3598 28.3462L28.9455 30.6956L26.2716 30.3647L23.9995 31.8497L21.7275 30.3647L19.0527 30.6956L17.6402 28.3462L15.0889 27.4547L14.8061 24.7106L12.8865 22.7756L13.7991 20.1778L12.8865 17.58L14.8061 15.645L15.0889 12.9009L17.6402 12.0084L19.0545 9.65906L21.7293 9.99L24.0014 8.505L26.2734 9.99L28.9482 9.65906L30.3626 12.0084L32.9138 12.9L33.1967 15.6441L35.1163 17.5791L34.2036 20.1769L35.1163 22.7747L33.1967 24.7097L32.912 27.4547Z" fill="#0085CA"/>
<path d="M24.0005 11.9617C19.5772 11.9617 15.9788 15.647 15.9788 20.177C15.9788 24.707 19.5772 28.3923 24.0005 28.3923C28.4237 28.3923 32.0222 24.707 32.0222 20.177C32.0222 15.648 28.4237 11.9617 24.0005 11.9617ZM24.0005 26.282C20.7142 26.282 18.0403 23.5436 18.0403 20.178C18.0403 16.8114 20.7142 14.0739 24.0005 14.0739C27.2868 14.0739 29.9607 16.8123 29.9607 20.178C29.9607 23.5436 27.2868 26.282 24.0005 26.282Z" fill="#0085CA"/>
</svg>
